<?xml version="1.0" encoding="utf-8"?>
<!-- Generator: Adobe Illustrator 27.5.0, SVG Export Plug-In . SVG Version: 6.00 Build 0)  -->
<svg version="1.1" id="Layer_1" xmlns="http://www.w3.org/2000/svg" xmlns:xlink="http://www.w3.org/1999/xlink" x="0px" y="0px"
	 viewBox="0 0 91.8 90.8" style="enable-background:new 0 0 91.8 90.8;" xml:space="preserve">
<path style="fill:#FFFFFF;" d="M90.6,19c-0.7-1.1-1.9-1.9-3.2-1.9l-63.2-2.9L22,5.6c-0.5-1.8-2-3-3.9-3H5.2c-2.2,0-4,1.8-4,4
	s1.8,4,4,4H15l11,42.8l-2.7,11.2c-0.3,1.2,0,2.5,0.7,3.4c0.8,1,1.9,1.5,3.1,1.5h49c2.2,0,4-1.8,4-4c0-2.2-1.8-4-4-4H32.3l1.1-4.6
	l40-1.9c1.5-0.1,2.8-1,3.4-2.3l14-30C91.4,21.6,91.3,20.2,90.6,19z"/>
<circle style="fill:#FFFFFF;" cx="29.7" cy="79.1" r="7.5"/>
<circle style="fill:#FFFFFF;" cx="74.7" cy="79.1" r="7.5"/>
</svg>
